<svg width="27" height="24" viewBox="0 0 27 24" fill="none" xmlns="http://www.w3.org/2000/svg">
<mask id="path-1-inside-1_5044_11077" fill="white">
<path fill-rule="evenodd" clip-rule="evenodd" d="M13.2887 23.9999C13.2887 23.9999 13.2887 24 13.2888 24V23.9998C16.7364 20.5522 17.8302 19.4584 18.6001 18.6885C19.6157 17.673 20.0679 17.2208 24.6154 12.6732C30.74 6.54832 21.284 -5.31629 13.2887 2.67882C5.29336 -5.31629 -4.16268 6.54832 1.96197 12.6732C6.51291 17.2243 6.96231 17.6737 7.97956 18.6909C8.7494 19.4607 9.84445 20.5557 13.2886 23.9998V24C13.2886 24 13.2886 23.9999 13.2887 23.9999Z"/>
</mask>
<path fill-rule="evenodd" clip-rule="evenodd" d="M13.2887 23.9999C13.2887 23.9999 13.2887 24 13.2888 24V23.9998C16.7364 20.5522 17.8302 19.4584 18.6001 18.6885C19.6157 17.673 20.0679 17.2208 24.6154 12.6732C30.74 6.54832 21.284 -5.31629 13.2887 2.67882C5.29336 -5.31629 -4.16268 6.54832 1.96197 12.6732C6.51291 17.2243 6.96231 17.6737 7.97956 18.6909C8.7494 19.4607 9.84445 20.5557 13.2886 23.9998V24C13.2886 24 13.2886 23.9999 13.2887 23.9999Z" fill="url(#paint0_linear_5044_11077)"/>
<path d="M13.2887 23.9999L14.0042 23.3013L13.2887 22.5683L12.5731 23.3013L13.2887 23.9999ZM13.2888 24L12.5732 24.6985L14.2888 26.456V24H13.2888ZM13.2888 23.9998L12.5817 23.2927L12.2888 23.5856V23.9998H13.2888ZM18.6001 18.6885L19.3072 19.3956L18.6001 18.6885ZM24.6154 12.6732L23.9083 11.9661L24.6154 12.6732ZM13.2887 2.67882L12.5816 3.38594L13.2887 4.09302L13.9958 3.38594L13.2887 2.67882ZM1.96197 12.6732L2.66909 11.9661H2.66909L1.96197 12.6732ZM7.97956 18.6909L8.68665 17.9837L7.97956 18.6909ZM13.2886 23.9998H14.2886V23.5856L13.9957 23.2927L13.2886 23.9998ZM13.2886 24H12.2886V26.456L14.0041 24.6985L13.2886 24ZM12.5731 24.6984C12.5772 24.7026 12.5806 24.706 12.5827 24.7081C12.5837 24.7091 12.5846 24.71 12.5851 24.7105C12.5854 24.7108 12.5856 24.711 12.5857 24.7111C12.5858 24.7112 12.5858 24.7112 12.5859 24.7113C12.5859 24.7113 12.5859 24.7113 12.5859 24.7113C12.5859 24.7113 12.5859 24.7113 12.5859 24.7113C12.5859 24.7113 12.5859 24.7113 12.5859 24.7113C12.5862 24.7116 12.5846 24.71 12.5827 24.7081C12.5807 24.7061 12.5773 24.7027 12.5732 24.6985L14.0044 23.3015C14.0002 23.2972 13.9969 23.2939 13.9948 23.2918C13.9937 23.2907 13.9929 23.2899 13.9924 23.2894C13.9921 23.2891 13.9919 23.2889 13.9917 23.2888C13.9917 23.2887 13.9916 23.2886 13.9916 23.2886C13.9916 23.2886 13.9916 23.2886 13.9916 23.2886C13.9915 23.2886 13.9915 23.2886 13.9915 23.2886C13.9915 23.2886 13.9915 23.2886 13.9915 23.2886C13.9913 23.2883 13.9929 23.2899 13.9947 23.2917C13.9968 23.2938 14.0001 23.2971 14.0042 23.3013L12.5731 24.6984ZM14.2888 24V23.9998H12.2888V24H14.2888ZM17.893 17.9814C17.1231 18.7513 16.0293 19.8451 12.5817 23.2927L13.9959 24.7069C17.4435 21.2593 18.5373 20.1656 19.3072 19.3956L17.893 17.9814ZM23.9083 11.9661C19.3608 16.5137 18.9086 16.9659 17.893 17.9814L19.3072 19.3956C20.3228 18.3801 20.775 17.9279 25.3225 13.3803L23.9083 11.9661ZM13.9958 3.38594C15.8283 1.55349 17.6562 0.93563 19.2491 1.00524C20.8631 1.07578 22.37 1.85813 23.5223 3.07006C25.8721 5.54157 26.4698 9.40446 23.9083 11.9661L25.3225 13.3803C28.8856 9.81704 27.8176 4.68519 24.9717 1.69197C23.5261 0.171529 21.5527 -0.895993 19.3364 -0.99285C17.099 -1.09063 14.7467 -0.193397 12.5816 1.97171L13.9958 3.38594ZM13.9958 1.97171C11.8306 -0.193397 9.47831 -1.09063 7.24091 -0.99285C5.02463 -0.895993 3.0512 0.171529 1.60561 1.69197C-1.24024 4.68519 -2.30826 9.81704 1.25485 13.3803L2.66909 11.9661C0.107549 9.40446 0.705225 5.54157 3.05506 3.07006C4.20732 1.85813 5.71423 1.07578 7.32823 1.00524C8.92113 0.93563 10.7491 1.55349 12.5816 3.38594L13.9958 1.97171ZM1.25485 13.3803C5.80579 17.9314 6.25521 18.3808 7.27247 19.398L8.68665 17.9837C7.66942 16.9665 7.22003 16.5172 2.66909 11.9661L1.25485 13.3803ZM7.27247 19.398C8.0423 20.1678 9.13735 21.2628 12.5814 24.7069L13.9957 23.2927C10.5516 19.8486 9.45649 18.7535 8.68665 17.9837L7.27247 19.398ZM14.2886 24V23.9998H12.2886V24H14.2886ZM12.5731 23.3013C12.5772 23.2971 12.5806 23.2938 12.5826 23.2917C12.5845 23.2899 12.5861 23.2883 12.5858 23.2886C12.5858 23.2886 12.5858 23.2886 12.5858 23.2886C12.5858 23.2886 12.5858 23.2886 12.5858 23.2886C12.5858 23.2886 12.5858 23.2886 12.5857 23.2886C12.5857 23.2886 12.5857 23.2887 12.5856 23.2888C12.5855 23.2889 12.5852 23.2891 12.585 23.2894C12.5845 23.2899 12.5836 23.2907 12.5825 23.2918C12.5805 23.2939 12.5771 23.2972 12.573 23.3015L14.0041 24.6985C14 24.7027 13.9967 24.7061 13.9946 24.7081C13.9928 24.71 13.9911 24.7116 13.9914 24.7113C13.9914 24.7113 13.9914 24.7113 13.9914 24.7113C13.9914 24.7113 13.9914 24.7113 13.9914 24.7113C13.9914 24.7113 13.9915 24.7113 13.9915 24.7113C13.9915 24.7112 13.9916 24.7112 13.9916 24.7111C13.9918 24.711 13.992 24.7108 13.9922 24.7105C13.9928 24.71 13.9936 24.7091 13.9947 24.7081C13.9967 24.706 14.0001 24.7026 14.0042 24.6984L12.5731 23.3013Z" fill="url(#paint1_linear_5044_11077)" mask="url(#path-1-inside-1_5044_11077)"/>
<defs>
<linearGradient id="paint0_linear_5044_11077" x1="1.68224e-07" y1="4.4177" x2="15.3642" y2="28.4501" gradientUnits="userSpaceOnUse">
<stop stop-color="#F7F7F7"/>
<stop offset="1" stop-color="#BCBCBC"/>
</linearGradient>
<linearGradient id="paint1_linear_5044_11077" x1="-5.44546e-07" y1="12" x2="9.95198" y2="30.3679" gradientUnits="userSpaceOnUse">
<stop stop-color="#424242"/>
<stop offset="1"/>
</linearGradient>
</defs>
</svg>
