<svg width="48" height="48" viewBox="0 0 48 48" fill="none" xmlns="http://www.w3.org/2000/svg">
<rect x="0.5" y="0.5" width="47" height="47" rx="23.5" fill="url(#paint0_linear_5203_24688)" fill-opacity="0.75"/>
<rect x="0.5" y="0.5" width="47" height="47" rx="23.5" stroke="white"/>
<path d="M12.6475 30.3015C12.6475 30.3015 14.0813 29.097 14.7812 28.5887C15.436 28.1024 16.4972 27.4505 17.0843 27.1189C18.1342 26.5332 19.218 26.8979 19.6583 27.4836L20.584 28.6439C21.0582 29.2296 21.792 29.1302 21.9839 29.097C23.35 28.7655 24.8063 27.9256 26.2852 26.5222C27.7867 25.0966 28.7012 23.6158 29.0173 22.0687L29.0399 21.9693C29.1302 21.3394 29.0173 21.041 28.7576 20.61L28.7125 20.5658C28.0915 20.0022 26.9287 19.306 26.7707 18.643C26.3191 17.4937 28.2948 15.1178 28.577 14.6979C28.577 14.6979 30.0108 12.8413 30.5188 12.4767C31.072 12.0236 31.9187 11.7694 32.788 12.2888L32.8331 12.322C35.3055 13.9575 36.2087 14.9078 35.9603 16.3113L35.8249 16.8749C34.5717 20.7426 32.1445 24.8756 28.5318 28.5555C24.9531 32.1912 21.0921 34.3572 17.2762 35.8711C16.2827 36.1916 15.2554 35.9153 14.2055 35.0313L14.1829 35.0202C13.37 34.2798 12.7378 33.4952 12.2637 32.6443V32.6222C11.8008 31.7271 11.9588 30.8762 12.6475 30.3015Z" fill="white"/>
<defs>
<linearGradient id="paint0_linear_5203_24688" x1="-9.83477e-07" y1="24" x2="20.9647" y2="58.9412" gradientUnits="userSpaceOnUse">
<stop stop-color="#424242"/>
<stop offset="1"/>
</linearGradient>
</defs>
</svg>
