<svg width="48" height="48" viewBox="0 0 48 48" fill="none" xmlns="http://www.w3.org/2000/svg">
<rect x="0.5" y="0.5" width="47" height="47" rx="23.5" fill="url(#paint0_linear_5203_24698)" fill-opacity="0.75"/>
<rect x="0.5" y="0.5" width="47" height="47" rx="23.5" stroke="white"/>
<path d="M36 14.3613L32.1991 33.5057C32.1991 33.5057 31.669 34.836 30.2087 34.1959L24.8059 30.0553L21.3451 33.2161C21.3451 33.2161 21.0751 33.4261 20.775 33.2961L20.7783 33.2669L21.475 27.315C21.475 27.315 31.1872 18.583 31.5873 18.2129C31.9874 17.8428 31.8574 17.7628 31.8574 17.7628C31.8774 17.3127 31.1372 17.7628 31.1372 17.7628L18.2702 25.9409L18.2559 25.934L12.9047 24.1336C12.9047 24.1336 12.0845 23.8435 12.0045 23.2033C11.9245 22.5632 12.9347 22.2231 12.9347 22.2231L34.2496 13.8612C34.2496 13.8612 36 13.091 36 14.3613Z" fill="white"/>
<defs>
<linearGradient id="paint0_linear_5203_24698" x1="-9.83477e-07" y1="24" x2="20.9647" y2="58.9412" gradientUnits="userSpaceOnUse">
<stop stop-color="#424242"/>
<stop offset="1"/>
</linearGradient>
</defs>
</svg>
