<svg width="48" height="48" viewBox="0 0 48 48" fill="none" xmlns="http://www.w3.org/2000/svg">
<rect x="0.5" y="0.5" width="47" height="47" rx="23.5" fill="url(#paint0_linear_5203_24692)" fill-opacity="0.75"/>
<rect x="0.5" y="0.5" width="47" height="47" rx="23.5" stroke="white"/>
<path d="M24 20.16C26.1257 20.16 27.84 21.8743 27.84 24C27.84 26.1257 26.1257 27.84 24 27.84C21.8743 27.84 20.16 26.1257 20.16 24C20.16 21.8743 21.8743 20.16 24 20.16ZM24 17.76C20.5543 17.76 17.76 20.5543 17.76 24C17.76 27.4457 20.5543 30.24 24 30.24C27.4457 30.24 30.24 27.4457 30.24 24C30.24 20.5543 27.4457 17.76 24 17.76Z" fill="white"/>
<path d="M30.4114 19.0286C31.2067 19.0286 31.8514 18.3839 31.8514 17.5886C31.8514 16.7933 31.2067 16.1486 30.4114 16.1486C29.6161 16.1486 28.9714 16.7933 28.9714 17.5886C28.9714 18.3839 29.6161 19.0286 30.4114 19.0286Z" fill="white"/>
<path d="M29.76 14.4C31.8857 14.4 33.6 16.1143 33.6 18.24V29.76C33.6 31.8857 31.8857 33.6 29.76 33.6H18.24C16.1143 33.6 14.4 31.8857 14.4 29.76V18.24C14.4 16.1143 16.1143 14.4 18.24 14.4H29.76ZM29.76 12H18.24C14.7943 12 12 14.7943 12 18.24V29.76C12 33.2057 14.7943 36 18.24 36H29.76C33.2057 36 36 33.2057 36 29.76V18.24C36 14.7943 33.2057 12 29.76 12Z" fill="white"/>
<defs>
<linearGradient id="paint0_linear_5203_24692" x1="-9.83477e-07" y1="24" x2="20.9647" y2="58.9412" gradientUnits="userSpaceOnUse">
<stop stop-color="#424242"/>
<stop offset="1"/>
</linearGradient>
</defs>
</svg>
