<svg width="93" height="64" viewBox="0 0 93 64" fill="none" xmlns="http://www.w3.org/2000/svg">
<path d="M32.4685 0.516506L25.3441 7.75117L25.8121 8.21201L32.9365 0.977352L32.4685 0.516506Z" fill="white"/>
<path d="M33.6754 2.20881L26.551 9.44347L27.019 9.90431L34.1434 2.66965L33.6754 2.20881Z" fill="white"/>
<path d="M62.0257 29.1401L54.9013 36.3747L55.3693 36.8356L62.4937 29.6009L62.0257 29.1401Z" fill="white"/>
<path d="M62.5909 15.1431L55.4665 22.3777L55.9345 22.8386L63.0588 15.6039L62.5909 15.1431Z" fill="white"/>
<path d="M33.3511 5.4627L21.9038 17.0872L22.3717 17.5481L33.8191 5.92354L33.3511 5.4627Z" fill="white"/>
<path d="M61.413 3.68025L54.2886 10.9149L54.7566 11.3758L61.881 4.14109L61.413 3.68025Z" fill="white"/>
<path d="M34.3417 30.8782L27.2173 38.1129L27.6853 38.5737L34.8096 31.3391L34.3417 30.8782Z" fill="white"/>
<path d="M43.012 15.4112L37.3492 21.1616L37.8823 21.6866L43.5451 15.9362L43.012 15.4112Z" fill="white"/>
<path d="M44.3734 17.4793L38.2178 23.7302L38.7509 24.2552L44.9066 18.0043L44.3734 17.4793Z" fill="white"/>
<path d="M31.9573 36.4706L27.7124 40.7813L28.1706 41.2325L32.4155 36.9219L31.9573 36.4706Z" fill="white"/>
<path d="M47.7995 20.3288L43.5546 24.6395L44.0877 25.1645L48.3326 20.8538L47.7995 20.3288Z" fill="white"/>
<path d="M53.6003 24.208L49.3554 28.5186L49.8885 29.0436L54.1334 24.733L53.6003 24.208Z" fill="white"/>
<path d="M56.0165 25.106L49.6845 31.536L50.2176 32.061L56.5497 25.631L56.0165 25.106Z" fill="white"/>
<path d="M60.883 1.16665L55.0962 7.04297L55.6294 7.56797L61.4161 1.69165L60.883 1.16665Z" fill="white"/>
<path d="M63.509 34.4686L59.2641 38.7792L59.7972 39.3042L64.0421 34.9936L63.509 34.4686Z" fill="white"/>
<path d="M65.2457 36.1795L61.0007 40.4901L61.5339 41.0151L65.7788 36.7045L65.2457 36.1795Z" fill="white"/>
<path d="M48.7324 22.6054L44.4875 26.916L45.0206 27.441L49.2655 23.1304L48.7324 22.6054Z" fill="white"/>
<path d="M46.3694 18.892L36.8671 28.5415L37.4002 29.0665L46.9026 19.417L46.3694 18.892Z" fill="white"/>
<path d="M53.9239 20.6706L44.4215 30.3201L44.9546 30.8451L54.457 21.1956L53.9239 20.6706Z" fill="white"/>
<path d="M37.2133 4.35621L26.0247 15.718L26.5318 16.2173L37.7204 4.85555L37.2133 4.35621Z" fill="white"/>
<path d="M36.7943 7.83391L25.6057 19.1957L26.1127 19.695L37.3013 8.33325L36.7943 7.83391Z" fill="white"/>
<path d="M68.0022 0L53.0146 15.2196L53.6509 15.8462L68.6385 0.626578L68.0022 0Z" fill="white"/>
<path d="M37.2612 10.6931L26.0726 22.0549L26.5796 22.5543L37.7682 11.1925L37.2612 10.6931Z" fill="white"/>
<path d="M67.9841 12.8455L56.7955 24.2073L57.3026 24.7066L68.4912 13.3448L67.9841 12.8455Z" fill="white"/>
<path d="M40.1541 11.1256L20.883 30.6949L21.3901 31.1942L40.6611 11.6249L40.1541 11.1256Z" fill="white"/>
<path d="M63.3894 20.6463L52.2008 32.0081L52.7079 32.5074L63.8965 21.1456L63.3894 20.6463Z" fill="white"/>
<path d="M65.7782 8.6587L54.5896 20.0205L55.0966 20.5198L66.2852 9.15804L65.7782 8.6587Z" fill="white"/>
<path d="M64.9389 6.17138L53.7503 17.5332L54.2574 18.0325L65.446 6.67072L64.9389 6.17138Z" fill="white"/>
<path d="M67.4522 19.9859L56.2636 31.3476L56.7707 31.847L67.9593 20.4852L67.4522 19.9859Z" fill="white"/>
<path d="M35.5412 26.4753L24.3526 37.8371L24.8597 38.3364L36.0483 26.9746L35.5412 26.4753Z" fill="white"/>
<path d="M68.0901 26.6212L56.9015 37.9829L57.4086 38.4823L68.5972 27.1205L68.0901 26.6212Z" fill="white"/>
<path d="M36.8995 21.6917L25.7109 33.0535L26.2179 33.5528L37.4065 22.191L36.8995 21.6917Z" fill="white"/>
<path d="M41.8048 13.0183L24.8294 30.2564L25.3365 30.7557L42.3119 13.5176L41.8048 13.0183Z" fill="white"/>
<path d="M5.19189 57.368L5.87612 57.3635L5.92641 63.9543L5.15227 63.9604L0.691846 58.3464L0.734515 63.9939L0.0502884 64L0 57.4092L0.774136 57.4031L5.23456 63.0171L5.19189 57.3696V57.368Z" fill="white"/>
<path d="M15.0134 57.9182L11.3118 57.9471L11.3301 60.3091L14.9631 60.2817L14.9676 60.9065L11.3347 60.9339L11.353 63.2868L15.0545 63.2579L15.0591 63.8827L10.6718 63.9162L10.6215 57.3254L15.0088 57.2918L15.0134 57.9166V57.9182Z" fill="white"/>
<path d="M19.5241 61.1397L19.4951 57.2583L20.1794 57.2537L20.2083 61.1244C20.2144 61.8528 20.4064 62.403 20.7874 62.7778C21.1668 63.1527 21.6987 63.3371 22.3799 63.331C23.061 63.3264 23.5898 63.1329 23.9632 62.7535C24.3381 62.374 24.5224 61.8193 24.5163 61.0924L24.4874 57.2217L25.1716 57.2156L25.2006 61.097C25.2082 61.9976 24.9567 62.6971 24.4478 63.1969C23.9388 63.6968 23.2515 63.9512 22.3844 63.9573C21.5173 63.9634 20.8255 63.7211 20.3089 63.2289C19.7923 62.7367 19.5302 62.0403 19.5241 61.1412V61.1397Z" fill="white"/>
<path d="M35.0723 59.0367C35.0769 59.5655 34.9078 60.0074 34.5664 60.361C34.2251 60.7145 33.7206 60.9065 33.0517 60.9385L35.2171 63.7303L34.3531 63.7364L32.1876 60.9446L30.5799 60.9568L30.6012 63.7653L29.917 63.7699L29.8667 57.1791L32.8947 57.1562C33.6094 57.1501 34.1504 57.3254 34.5161 57.6789C34.8834 58.034 35.0678 58.485 35.0723 59.0352V59.0367ZM34.0026 59.9922C34.2616 59.7819 34.3912 59.4649 34.3866 59.0413C34.3835 58.6176 34.251 58.3007 33.9873 58.0919C33.7237 57.8816 33.358 57.7795 32.8886 57.7825L30.5555 57.8008L30.5753 60.332L32.9084 60.3137C33.3778 60.3107 33.7435 60.204 34.0026 59.9922Z" fill="white"/>
<path d="M39.8436 57.9578C40.4898 57.2979 41.2837 56.9642 42.224 56.9566C43.1642 56.949 43.9612 57.2705 44.618 57.9212C45.2748 58.5719 45.607 59.3826 45.6146 60.3549C45.6222 61.3271 45.3022 62.1439 44.6561 62.8038C44.0099 63.4636 43.216 63.7973 42.2773 63.805C41.337 63.8126 40.5401 63.491 39.8833 62.8403C39.2265 62.1896 38.8942 61.3789 38.8866 60.4067C38.879 59.4344 39.199 58.6176 39.8452 57.9578H39.8436ZM40.3435 62.406C40.854 62.9287 41.4955 63.1862 42.2697 63.1802C43.0438 63.1741 43.6823 62.9059 44.1837 62.3771C44.685 61.8468 44.9334 61.1747 44.9273 60.361C44.9212 59.5472 44.6622 58.8797 44.1532 58.357C43.6427 57.8343 43.0011 57.5768 42.227 57.5829C41.4529 57.589 40.8144 57.8572 40.313 58.3875C39.8116 58.9178 39.5632 59.5899 39.5693 60.4036C39.5754 61.2174 39.8345 61.8848 40.3435 62.4075V62.406Z" fill="white"/>
<path d="M49.1211 57.0328L54.5111 56.9916L54.5157 57.6164L52.1628 57.6347L52.2085 63.5992L51.5243 63.6038L51.4785 57.6393L49.1256 57.6576L49.1211 57.0328Z" fill="white"/>
<path d="M63.8358 58.8157C63.8403 59.3445 63.6712 59.7864 63.3298 60.14C62.9885 60.4935 62.4841 60.6855 61.8151 60.7175L63.9805 63.5093L63.1165 63.5154L60.951 60.7236L59.3433 60.7358L59.3647 63.5444L58.6804 63.5489L58.6302 56.9581L61.6581 56.9352C62.3728 56.9292 62.9138 57.1044 63.2795 57.4579C63.6468 57.813 63.8312 58.2641 63.8358 58.8142V58.8157ZM62.766 59.7712C63.0266 59.5609 63.1546 59.2439 63.1515 58.8203C63.1485 58.3967 63.0159 58.0797 62.7523 57.8709C62.4886 57.6606 62.1229 57.5585 61.6536 57.5616L59.3205 57.5799L59.3403 60.111L61.6734 60.0928C62.1427 60.0897 62.5085 59.9815 62.7675 59.7712H62.766Z" fill="white"/>
<path d="M68.6055 57.7383C69.2517 57.0785 70.0456 56.7448 70.9858 56.7371C71.9261 56.7295 72.7231 57.0511 73.3799 57.7018C74.0367 58.3525 74.3689 59.1632 74.3765 60.1354C74.3841 61.1077 74.0641 61.9245 73.418 62.5843C72.7719 63.2442 71.9779 63.5779 71.0377 63.5855C70.0974 63.5931 69.3004 63.2716 68.6436 62.6209C67.9868 61.9702 67.6546 61.1595 67.647 60.1872C67.6394 59.215 67.9594 58.3982 68.6055 57.7383ZM69.1054 62.1866C69.6159 62.7093 70.2574 62.9668 71.0316 62.9607C71.8057 62.9546 72.4442 62.6864 72.9456 62.1576C73.4469 61.6273 73.6953 60.9553 73.6892 60.1415C73.6831 59.3278 73.4241 58.6603 72.9151 58.1376C72.4046 57.6149 71.763 57.3574 70.9889 57.3635C70.2148 57.3696 69.5762 57.6378 69.0749 58.1681C68.572 58.6984 68.3251 59.3704 68.3312 60.1842C68.3373 60.9979 68.5964 61.6654 69.1054 62.1881V62.1866Z" fill="white"/>
<path d="M83.3278 57.3071C83.6951 57.6621 83.8795 58.1132 83.8841 58.6633C83.8886 59.2135 83.7103 59.6661 83.3492 60.0226C82.988 60.3792 82.4501 60.5606 81.7354 60.5667L79.3932 60.585L79.4145 63.3935L78.7303 63.3981L78.68 56.8072L81.7064 56.7844C82.4211 56.7783 82.9621 56.9535 83.3278 57.3071ZM82.8143 59.6188C83.0749 59.4085 83.2029 59.0916 83.1998 58.6679C83.1968 58.2443 83.0642 57.9273 82.8006 57.7185C82.5369 57.5082 82.1712 57.4061 81.7019 57.4092L79.3688 57.4275L79.3886 59.9586L81.7217 59.9404C82.191 59.9373 82.5568 59.8306 82.8158 59.6188H82.8143Z" fill="white"/>
<path d="M87.5902 61.7919L88.3247 61.7858C88.4862 62.089 88.7483 62.3374 89.1141 62.5294C89.4798 62.7215 89.8943 62.8159 90.3575 62.8129C90.9061 62.8083 91.3572 62.6849 91.7092 62.4411C92.0613 62.1972 92.2365 61.8955 92.2335 61.5389C92.2304 61.1884 92.1009 60.9202 91.8449 60.7328C91.5889 60.5469 91.1987 60.425 90.676 60.3701L89.5438 60.2497C88.9419 60.1811 88.4847 59.9967 88.1753 59.695C87.866 59.3933 87.709 59.0077 87.7045 58.5369C87.6999 57.9547 87.9208 57.4869 88.3689 57.1318C88.8169 56.7783 89.4234 56.5985 90.1914 56.5924C90.9199 56.5863 91.5096 56.7524 91.9622 57.0892C92.4148 57.4259 92.7257 57.813 92.8948 58.2488L92.1512 58.2549C91.9973 57.9456 91.7428 57.6941 91.3907 57.5021C91.0387 57.3101 90.6303 57.2156 90.1671 57.2187C89.6246 57.2233 89.1933 57.3467 88.8748 57.5905C88.5563 57.8343 88.3978 58.1346 88.4009 58.4927C88.4054 59.1617 88.8626 59.5381 89.7693 59.6234L91.0204 59.7529C91.6163 59.8139 92.0811 59.9998 92.4148 60.3076C92.7485 60.617 92.9162 61.0086 92.9207 61.4856C92.9253 62.0022 92.7013 62.4548 92.2517 62.8449C91.8007 63.235 91.1728 63.4346 90.3652 63.4407C89.9552 63.4438 89.5819 63.395 89.2466 63.296C88.9114 63.1954 88.6386 63.0613 88.4253 62.8906C88.2119 62.7199 88.0382 62.5447 87.9056 62.3633C87.7715 62.182 87.6679 61.993 87.5932 61.7949L87.5902 61.7919Z" fill="white"/>
</svg>
