<svg width="464" height="400" viewBox="0 0 464 400" fill="none" xmlns="http://www.w3.org/2000/svg">
<g opacity="0.1">
<path d="M112.391 5.01068L43.277 75.1948L47.8169 79.6655L116.931 9.48138L112.391 5.01068Z" fill="#EA13EE"/>
<path d="M124.1 21.4278L54.9857 91.6119L59.5256 96.0826L128.64 25.8985L124.1 21.4278Z" fill="#EA13EE"/>
<path d="M399.129 282.691L330.015 352.875L334.554 357.345L403.669 287.161L399.129 282.691Z" fill="#EA13EE"/>
<path d="M404.611 146.904L335.497 217.088L340.037 221.559L409.151 151.375L404.611 146.904Z" fill="#EA13EE"/>
<path d="M120.954 52.9941L9.90219 165.765L14.4421 170.235L125.494 57.4648L120.954 52.9941Z" fill="#EA13EE"/>
<path d="M393.185 35.7024L324.071 105.887L328.611 110.357L397.725 40.1731L393.185 35.7024Z" fill="#EA13EE"/>
<path d="M130.563 299.552L61.449 369.736L65.9889 374.207L135.103 304.023L130.563 299.552Z" fill="#EA13EE"/>
<path d="M214.675 149.506L159.74 205.291L164.912 210.384L219.847 154.599L214.675 149.506Z" fill="#EA13EE"/>
<path d="M227.883 169.568L168.166 230.209L173.338 235.302L233.054 174.661L227.883 169.568Z" fill="#EA13EE"/>
<path d="M107.433 353.805L66.2526 395.623L70.6977 400L111.878 358.182L107.433 353.805Z" fill="#EA13EE"/>
<path d="M261.119 197.212L219.939 239.03L225.11 244.123L266.291 202.305L261.119 197.212Z" fill="#EA13EE"/>
<path d="M317.393 234.844L276.213 276.662L281.384 281.755L322.565 239.937L317.393 234.844Z" fill="#EA13EE"/>
<path d="M340.833 243.555L279.405 305.934L284.577 311.027L346.005 248.648L340.833 243.555Z" fill="#EA13EE"/>
<path d="M388.043 11.3177L331.905 68.3245L337.077 73.4176L393.215 16.4108L388.043 11.3177Z" fill="#EA13EE"/>
<path d="M413.518 334.383L372.338 376.201L377.51 381.294L418.69 339.476L413.518 334.383Z" fill="#EA13EE"/>
<path d="M430.366 350.981L389.186 392.798L394.357 397.891L435.538 356.074L430.366 350.981Z" fill="#EA13EE"/>
<path d="M270.169 219.297L228.989 261.115L234.161 266.208L275.341 224.39L270.169 219.297Z" fill="#EA13EE"/>
<path d="M247.246 183.273L155.062 276.883L160.234 281.976L252.418 188.366L247.246 183.273Z" fill="#EA13EE"/>
<path d="M320.532 200.528L228.348 294.138L233.52 299.231L325.704 205.621L320.532 200.528Z" fill="#EA13EE"/>
<path d="M158.422 42.26L49.88 152.482L54.7991 157.326L163.341 47.1041L158.422 42.26Z" fill="#EA13EE"/>
<path d="M154.356 75.9975L45.8147 186.219L50.7338 191.063L159.275 80.8416L154.356 75.9975Z" fill="#EA13EE"/>
<path d="M457.108 0L311.711 147.647L317.884 153.725L463.28 6.07849L457.108 0Z" fill="#EA13EE"/>
<path d="M158.886 103.735L50.3441 213.957L55.2632 218.801L163.805 108.579L158.886 103.735Z" fill="#EA13EE"/>
<path d="M456.932 124.615L348.39 234.837L353.309 239.681L461.851 129.459L456.932 124.615Z" fill="#EA13EE"/>
<path d="M186.95 107.93L0 297.774L4.91911 302.618L191.869 112.774L186.95 107.93Z" fill="#EA13EE"/>
<path d="M412.358 200.292L303.816 310.513L308.736 315.357L417.277 205.136L412.358 200.292Z" fill="#EA13EE"/>
<path d="M435.532 83.9989L326.99 194.22L331.909 199.065L440.451 88.843L435.532 83.9989Z" fill="#EA13EE"/>
<path d="M427.39 59.8691L318.848 170.091L323.768 174.935L432.309 64.7132L427.39 59.8691Z" fill="#EA13EE"/>
<path d="M451.772 193.885L343.23 304.106L348.15 308.951L456.691 198.729L451.772 193.885Z" fill="#EA13EE"/>
<path d="M142.201 256.839L33.659 367.061L38.5781 371.905L147.12 261.683L142.201 256.839Z" fill="#EA13EE"/>
<path d="M457.96 258.254L349.419 368.476L354.338 373.32L462.879 263.098L457.96 258.254Z" fill="#EA13EE"/>
<path d="M155.377 210.433L46.8352 320.655L51.7543 325.499L160.296 215.277L155.377 210.433Z" fill="#EA13EE"/>
<path d="M202.964 126.292L38.2844 293.52L43.2035 298.364L207.883 131.136L202.964 126.292Z" fill="#EA13EE"/>
</g>
</svg>
