<svg width="23" height="24" viewBox="0 0 23 24" fill="none" xmlns="http://www.w3.org/2000/svg">
<path d="M13.8667 0C16.9556 0 19.2111 0.555556 20.6333 1.66667C22.0556 2.77778 22.7667 4.42222 22.7667 6.6C22.7667 8.68889 22.1556 10.2778 20.9333 11.3667C19.7111 12.4556 17.9111 13.1111 15.5333 13.3333L12.8333 13.5667V16.4333H7.03333V9.8L16.3 9.06667V5.03333C14.2556 5.03333 11.7222 5.15556 8.7 5.4C5.67778 5.64444 2.77778 5.95555 0 6.33333L0.233333 0.566667C4.87778 0.188889 9.42222 0 13.8667 0ZM13.3333 24H6.53333V19.4333H13.3333V24Z" fill="black"/>
</svg>
