<svg width="48" height="48" viewBox="0 0 48 48" fill="none" xmlns="http://www.w3.org/2000/svg">
<rect x="0.5" y="0.5" width="47" height="47" rx="23.5" stroke="white"/>
<path d="M36 14.3623L32.1991 33.5067C32.1991 33.5067 31.669 34.837 30.2087 34.1968L24.8059 30.0563L21.3451 33.217C21.3451 33.217 21.0751 33.4271 20.775 33.2971L20.7783 33.2678L21.475 27.316C21.475 27.316 31.1872 18.584 31.5873 18.2139C31.9874 17.8438 31.8574 17.7638 31.8574 17.7638C31.8774 17.3137 31.1372 17.7638 31.1372 17.7638L18.2702 25.9418L18.2559 25.9349L12.9047 24.1345C12.9047 24.1345 12.0845 23.8445 12.0045 23.2043C11.9245 22.5642 12.9347 22.2241 12.9347 22.2241L34.2496 13.8622C34.2496 13.8622 36 13.092 36 14.3623Z" fill="white"/>
</svg>
