<svg width="124" height="123" viewBox="0 0 124 123" fill="none" xmlns="http://www.w3.org/2000/svg">
<rect x="0.5" width="123" height="123" rx="61.5" fill="white"/>
<path d="M29.7776 61.86C30.3136 61.996 30.7016 62.22 30.9416 62.532C31.1896 62.836 31.3136 63.24 31.3136 63.744C31.3136 64.52 31.0496 65.092 30.5216 65.46C30.0016 65.82 29.1856 66 28.0736 66H20.9216V57.84H27.7136C28.8576 57.84 29.6976 58.02 30.2336 58.38C30.7696 58.732 31.0376 59.292 31.0376 60.06C31.0376 60.508 30.9376 60.88 30.7376 61.176C30.5376 61.472 30.2176 61.7 29.7776 61.86ZM28.4936 61.056V59.772H23.3576V61.056H28.4936ZM23.3576 64.068H28.7696V62.736H23.3576V64.068ZM44.7754 59.976L41.6914 62.88L44.9914 65.94V66H41.9914L39.7954 63.828H38.9794V66H36.6874V59.916H38.9794V62.124H39.8194L42.0154 59.916H44.7754V59.976ZM49.9826 66.192C48.7986 66.192 47.8706 66.092 47.1986 65.892C46.5346 65.692 46.0546 65.36 45.7586 64.896C45.4706 64.432 45.3266 63.784 45.3266 62.952C45.3266 62.12 45.4706 61.472 45.7586 61.008C46.0546 60.544 46.5346 60.216 47.1986 60.024C47.8706 59.824 48.7986 59.724 49.9826 59.724C51.1666 59.724 52.0906 59.824 52.7546 60.024C53.4266 60.216 53.9066 60.544 54.1946 61.008C54.4906 61.472 54.6386 62.12 54.6386 62.952C54.6386 63.784 54.4906 64.432 54.1946 64.896C53.9066 65.36 53.4266 65.692 52.7546 65.892C52.0906 66.092 51.1666 66.192 49.9826 66.192ZM49.9826 64.344C50.4066 64.344 50.8266 64.34 51.2426 64.332C51.6586 64.324 51.9906 64.312 52.2386 64.296V61.608C51.9266 61.584 51.1746 61.572 49.9826 61.572C48.8146 61.572 48.0666 61.584 47.7386 61.608V64.296C47.9866 64.312 48.3146 64.324 48.7226 64.332C49.1386 64.34 49.5586 64.344 49.9826 64.344ZM62.3903 59.724C63.3743 59.724 64.0783 59.972 64.5023 60.468C64.9343 60.964 65.1503 61.776 65.1503 62.904C65.1503 63.64 65.0503 64.232 64.8503 64.68C64.6503 65.128 64.3183 65.46 63.8543 65.676C63.3903 65.892 62.7583 66 61.9583 66H58.5263V68.64H56.2343V59.916H57.9863L58.3223 60.444C59.9703 59.964 61.3263 59.724 62.3903 59.724ZM62.7503 64.236V61.536C61.4543 61.536 60.0463 61.724 58.5263 62.1V64.236H62.7503ZM73.1208 62.916C73.8568 63.116 74.2248 63.608 74.2248 64.392C74.2248 65 73.9688 65.452 73.4568 65.748C72.9448 66.044 72.0688 66.192 70.8288 66.192C70.1488 66.192 69.3768 66.172 68.5128 66.132C67.6568 66.092 66.8848 66.04 66.1968 65.976L66.1128 64.188C67.1608 64.308 68.1128 64.4 68.9688 64.464C69.8248 64.52 70.8248 64.548 71.9688 64.548V63.612H68.1048V62.292H71.8728V61.38C70.0088 61.38 68.1688 61.468 66.3528 61.644L66.4368 59.916C67.8848 59.788 69.4248 59.724 71.0568 59.724C72.1288 59.724 72.8968 59.872 73.3608 60.168C73.8328 60.464 74.0688 60.9 74.0688 61.476C74.0688 61.828 73.9888 62.128 73.8288 62.376C73.6688 62.616 73.4328 62.796 73.1208 62.916ZM79.0823 66H75.7343V59.916H77.9543V64.464H78.0143L80.8823 59.916H84.2423V66H82.0223V61.452H81.9503L79.0823 66ZM92.3903 61.956V59.916H94.6823V66H92.3903V63.804H88.5263V66H86.2343V59.916H88.5263V61.956H92.3903ZM102.172 59.916H104.488V59.976L101.632 66.636C101.408 67.156 101.184 67.552 100.96 67.824C100.736 68.104 100.432 68.308 100.048 68.436C99.6637 68.572 99.1397 68.64 98.4757 68.64C97.7957 68.64 97.0557 68.6 96.2557 68.52L96.1597 66.672C97.3837 66.824 98.4517 66.904 99.3637 66.912L99.7357 66H98.6437L95.5837 59.976V59.916H98.0557L100.252 64.512H100.324L102.172 59.916Z" fill="black"/>
</svg>
